HIERARCHY
ROOT Hips
{
	OFFSET 0.000000 0.000000 0.000000
	CHANNELS 6 Xposition Yposition Zposition Zrotation Yrotation Xrotation 
	JOINT LHipJoint
	{
		OFFSET 0.000000 0.000000 0.000000
		CHANNELS 3 Zrotation Yrotation Xrotation
		JOINT LeftUpLeg
		{
			OFFSET 1.363060 -1.794630 0.839290
			CHANNELS 3 Zrotation Yrotation Xrotation
			JOINT LeftLeg
			{
				OFFSET 2.448110 -6.726130 0.000000
				CHANNELS 3 Zrotation Yrotation Xrotation
				JOINT LeftFoot
				{
					OFFSET 2.562200 -7.039590 0.000000
					CHANNELS 3 Zrotation Yrotation Xrotation
					JOINT LeftToeBase
					{
						OFFSET 0.157640 -0.433110 2.322550
						CHANNELS 3 Zrotation Yrotation Xrotation
						End Site
						{
							OFFSET 0.000000 0.000000 0.000000
						}
					}
				}
			}
		}
	}
	JOINT RHipJoint
	{
		OFFSET 0.000000 0.000000 0.000000
		CHANNELS 3 Zrotation Yrotation Xrotation
		JOINT RightUpLeg
		{
			OFFSET -1.305520 -1.794630 0.839290
			CHANNELS 3 Zrotation Yrotation Xrotation
			JOINT RightLeg
			{
				OFFSET -2.542530 -6.985550 0.000000
				CHANNELS 3 Zrotation Yrotation Xrotation
				JOINT RightFoot
				{
					OFFSET -2.568260 -7.056230 0.000000
					CHANNELS 3 Zrotation Yrotation Xrotation
					JOINT RightToeBase
					{
						OFFSET -0.164730 -0.452590 2.363150
						CHANNELS 3 Zrotation Yrotation Xrotation
						End Site
						{
							OFFSET 0.000000 0.000000 0.000000
						}
					}
				}
			}
		}
	}
	JOINT LowerBack
	{
		OFFSET 0.000000 0.000000 0.000000
		CHANNELS 3 Zrotation Yrotation Xrotation
		JOINT Spine
		{
			OFFSET 0.028270 2.035590 -0.193380
			CHANNELS 3 Zrotation Yrotation Xrotation
			JOINT Spine1
			{
				OFFSET 0.056720 2.048850 -0.042750
				CHANNELS 3 Zrotation Yrotation Xrotation
				JOINT Neck
				{
					OFFSET 0.000000 0.000000 0.000000
					CHANNELS 3 Zrotation Yrotation Xrotation
					JOINT Neck1
					{
						OFFSET -0.054170 1.746240 0.172020
						CHANNELS 3 Zrotation Yrotation Xrotation
						JOINT Head
						{
							OFFSET 0.104070 1.761360 -0.123970
							CHANNELS 3 Zrotation Yrotation Xrotation
							End Site
							{
								OFFSET 0.000000 0.000000 0.000000
							}
						}
					}
				}
				JOINT LeftShoulder
				{
					OFFSET 0.000000 0.000000 0.000000
					CHANNELS 3 Zrotation Yrotation Xrotation
					JOINT LeftArm
					{
						OFFSET 3.362410 1.200890 -0.311210
						CHANNELS 3 Zrotation Yrotation Xrotation
						JOINT LeftForeArm
						{
							OFFSET 4.983000 -0.000000 -0.000000
							CHANNELS 3 Zrotation Yrotation Xrotation
							JOINT LeftHand
							{
								OFFSET 3.483560 -0.000000 -0.000000
								CHANNELS 3 Zrotation Yrotation Xrotation
								JOINT LeftFingerBase
								{
									OFFSET 0.000000 0.000000 0.000000
									CHANNELS 3 Zrotation Yrotation Xrotation
									JOINT LeftHandIndex1
									{
										OFFSET 0.715260 -0.000000 -0.000000
										CHANNELS 3 Zrotation Yrotation Xrotation
										End Site
										{
											OFFSET 0.000000 0.000000 0.000000
										}
									}
								}
								JOINT LThumb
								{
									OFFSET 0.000000 0.000000 0.000000
									CHANNELS 3 Zrotation Yrotation Xrotation
									End Site
									{
										OFFSET 0.000000 0.000000 0.000000
									}
								}
							}
						}
					}
				}
				JOINT RightShoulder
				{
					OFFSET 0.000000 0.000000 0.000000
					CHANNELS 3 Zrotation Yrotation Xrotation
					JOINT RightArm
					{
						OFFSET -3.136600 1.374050 -0.404650
						CHANNELS 3 Zrotation Yrotation Xrotation
						JOINT RightForeArm
						{
							OFFSET -5.241900 -0.000000 -0.000000
							CHANNELS 3 Zrotation Yrotation Xrotation
							JOINT RightHand
							{
								OFFSET -3.444170 -0.000000 -0.000000
								CHANNELS 3 Zrotation Yrotation Xrotation
								JOINT RightFingerBase
								{
									OFFSET 0.000000 0.000000 0.000000
									CHANNELS 3 Zrotation Yrotation Xrotation
									JOINT RightHandIndex1
									{
										OFFSET -0.622530 -0.000000 -0.000000
										CHANNELS 3 Zrotation Yrotation Xrotation
										End Site
										{
											OFFSET 0.000000 0.000000 0.000000
										}
									}
								}
								JOINT RThumb
								{
									OFFSET 0.000000 0.000000 0.000000
									CHANNELS 3 Zrotation Yrotation Xrotation
									End Site
									{
										OFFSET 0.000000 0.000000 0.000000
									}
								}
							}
						}
					}
				}
			}
		}
	}
}
MOTION
Frames: 8
Frame Time: 0.033333
4.611907 17.180474 -27.276810 -0.537691 -8.063265 11.342707 -13.861271 1.865887 -2.113320 1.251336 7.053657 0.432199 -4.385711 -3.021077 23.108445 1.302092 7.010433 8.979987 3.175323 0.643416 -65.886319 5.696916 -0.147560 10.163259 11.099094 10.641638 -33.812306 1.776453 4.272178 8.716585 0.789512 0.505753 6.768252 0.036869 -0.170087 -27.807194 2.755967 -5.260750 1.627658 1.233718 -2.149064 -5.021732 -7.728000 -3.788751 -2.870160 10.994521 -6.233383 -3.857011 -3.904347 -0.301352 0.910824 -0.025410 0.016243 0.009981 -7.204654 -2.286598 2.929593 -60.503556 0.472401 18.381352 -1.276140 -41.863573 -0.672750 4.436945 -0.564019 0.008898 -0.231790 0.204824 0.018962 -0.112308 0.014178 -0.140183 -0.018325 0.101703 -0.014236 13.177447 -5.330701 9.712370 63.330732 4.466251 -12.574736 3.767674 22.396503 1.673454 0.109875 8.071549 -0.049376 0.034477 0.157409 0.012382 0.110734 0.000607 -0.073277 -0.011721 0.038123 0.078187 
4.457268 17.295795 -26.687843 -2.080573 -6.422556 13.460516 -14.107806 1.834166 -1.529649 2.846146 6.693905 -2.083694 -3.533964 -8.024992 25.855322 1.074003 7.890040 17.268141 3.047831 0.621344 -66.784893 6.233319 1.285044 7.577565 11.586444 8.156992 -33.875071 4.804077 2.124657 13.484322 0.398416 0.908934 4.384254 -0.244837 -0.079162 -26.753932 4.973508 -6.007060 -2.227953 0.219401 -1.303987 -5.209437 -6.955247 -4.119715 -1.286098 10.558181 -5.933983 -3.416316 -4.247676 -0.273656 0.817129 -0.018130 0.002242 -0.011604 -10.388803 -1.594541 3.570869 -59.169069 -1.480895 18.184220 0.257056 -38.337507 -2.491177 4.878121 -0.664236 -0.001397 -0.220939 0.088719 0.011627 -0.118768 0.005168 -0.134393 -0.023149 0.112187 -0.020881 15.120647 -4.605124 8.246724 61.675001 3.752621 -14.135041 2.990127 19.829709 0.477072 -0.279153 7.482043 -0.068943 0.085291 0.153124 0.002818 0.113442 -0.000625 -0.082678 -0.002987 0.037167 0.083677 
4.279159 17.420232 -26.124699 -1.986396 -3.167660 12.719269 -14.634353 0.168667 0.232915 4.369936 3.791302 -3.891975 -3.167573 -6.962257 30.238996 0.754366 9.763758 27.164253 3.278729 0.595724 -64.221703 7.691913 -0.626655 5.100472 11.197053 8.648461 -31.165348 3.288249 -0.845866 18.667058 0.298438 0.590844 2.474863 -0.462921 -0.007466 -26.635587 4.413069 -7.654073 -3.478281 1.300416 -1.603046 -4.649965 -8.928995 -5.324187 -0.367017 11.652374 -5.033490 -2.507232 -4.309128 -0.272966 0.949045 -0.016377 -0.002299 -0.022419 -11.320164 -0.460535 3.214783 -58.612710 -2.102214 17.530544 -0.811999 -35.367652 -1.977588 4.222287 -0.684420 0.017663 -0.227427 0.100147 0.005250 -0.123947 -0.000806 -0.119969 -0.036164 0.119835 -0.038857 18.410326 -2.888252 7.745068 60.842538 4.975644 -15.163690 1.412813 16.058792 -1.533072 -0.704439 7.618883 -0.093734 -0.039948 0.185174 0.004571 0.105173 0.002426 -0.087986 0.005181 0.038850 0.099217 
4.101165 17.534658 -25.590736 -1.939293 -2.567624 11.938398 -15.109483 -0.424035 0.478591 5.276225 3.469540 -8.238282 -1.384437 -2.526505 37.459038 0.614659 12.632369 34.401839 3.823591 0.544977 -59.449663 8.094394 -0.603319 4.142210 11.411822 7.312831 -27.496894 3.854824 -1.293242 18.769282 0.110594 0.753022 2.211535 -0.372157 0.004394 -25.523527 4.523892 -6.225796 -3.282856 -0.150906 -2.672510 -5.130664 -9.531047 -4.264720 0.733933 12.022942 -3.459922 -3.069491 -4.467769 -0.291761 0.725774 -0.013739 0.009815 -0.031090 -9.821915 0.441473 3.190897 -58.939485 -3.451991 17.301535 -0.762056 -32.065035 -1.849027 4.516756 -0.734122 0.019289 -0.197834 0.046120 0.001389 -0.130616 0.002700 -0.123487 -0.039660 0.119925 -0.034335 20.496124 -1.590347 7.442832 62.836384 6.845815 -15.267209 1.791582 14.369151 -1.525937 -1.051275 7.612611 -0.128302 -0.041274 0.110416 0.005163 0.102208 0.013211 -0.089634 0.003419 0.051297 0.102582 
3.935486 17.634216 -25.089479 -2.511290 -1.792516 10.454098 -15.035894 -0.270969 0.308453 5.288478 4.085949 -12.589237 1.213195 0.027700 46.041640 1.864460 16.369354 32.473324 4.028432 0.382619 -51.855759 9.269499 -1.853005 3.656619 11.156569 7.067794 -23.151597 4.901858 -1.334900 18.125913 -0.085592 0.364392 2.351315 -0.082152 -0.029891 -24.545286 4.712101 -5.695732 -1.445789 -0.068844 -1.982853 -4.170313 -10.044509 -3.756024 0.016254 13.017024 -2.113650 -3.368914 -4.375432 -0.297498 1.147997 -0.018984 0.034106 -0.018983 -8.131412 1.291326 3.661481 -60.816066 -4.966944 16.196768 -0.852878 -27.563877 -1.234209 5.034820 -0.646849 0.013395 -0.203881 0.136466 -0.003510 -0.143418 -0.000820 -0.113786 -0.040893 0.113187 -0.028137 21.474585 -1.846015 7.516419 63.701152 10.565229 -12.834123 1.611070 13.380039 -1.378708 -1.902164 7.929517 -0.190080 -0.055245 0.096654 0.004734 0.097058 0.029185 -0.091602 0.001100 0.055918 0.096225 
3.771840 17.720937 -24.620636 -2.892206 -2.563239 11.102461 -14.830218 0.280658 -0.132074 4.403165 4.343230 -20.126206 3.202303 1.712423 56.332281 2.833168 17.511964 23.204037 3.980491 0.174917 -44.349576 10.364524 -1.088955 4.988529 10.424459 6.360728 -21.361949 5.841679 0.283826 14.219334 -0.231226 0.326201 2.458977 0.165415 -0.050327 -23.557887 4.998550 -4.441658 -0.769423 0.050095 -1.678856 -4.547528 -9.646944 -1.396069 -0.403240 13.455885 -0.668103 -3.565773 -4.389075 -0.323886 0.830333 -0.021585 0.045653 -0.016445 -8.805277 2.314741 4.617062 -62.280067 -5.717557 14.726358 -0.472164 -23.445197 -1.258678 5.889068 -0.401558 0.014238 -0.216110 0.083306 -0.015047 -0.151061 -0.008305 -0.104866 -0.028796 0.110264 -0.016174 20.902876 -0.442923 5.672405 64.621467 11.581565 -9.675155 1.195416 13.279548 -1.043705 -2.415309 8.102095 -0.227455 -0.050823 0.143335 0.001076 0.092977 0.032309 -0.086381 -0.002570 0.060708 0.087905 
3.604323 17.792104 -24.170683 -0.906869 -2.053720 11.983491 -15.442325 0.396187 -0.149308 2.303715 2.513888 -26.520942 4.506459 2.300996 61.753611 3.853851 17.246665 11.914079 3.319413 0.010642 -36.813096 9.858345 -1.299588 5.220963 9.260019 6.212824 -18.797471 5.938094 1.600900 10.167617 -0.426795 -0.632451 2.352188 0.446218 -0.130152 -23.525307 3.208902 -3.867722 -1.189134 -1.070489 -0.051722 -5.392414 -9.287942 -0.724507 -0.213627 13.766380 0.201682 -4.186362 -4.313190 -0.324625 0.716643 -0.032750 0.047299 0.003318 -7.794984 3.351465 4.374193 -63.324522 -6.679370 14.153578 -1.719926 -20.819825 -0.642603 5.423164 0.192177 0.060473 -0.209483 0.053213 -0.032749 -0.154919 -0.025402 -0.082132 -0.027326 0.109333 -0.020352 21.910836 -0.592192 6.094221 64.916365 14.014997 -6.421975 1.040814 14.338060 -1.012417 -2.031974 8.251940 -0.170489 -0.022455 0.133541 -0.004428 0.087234 0.039798 -0.084741 -0.004481 0.061662 0.075759 
3.443361 17.841201 -23.721451 -0.542261 -1.539748 12.232585 -14.397251 0.425548 1.202467 0.345808 1.018487 -33.154792 5.257236 2.153317 63.716914 3.860386 17.504587 5.392229 2.460066 -0.060659 -31.805331 10.916656 -1.439920 6.086954 8.476032 6.846878 -16.824870 4.897202 1.620126 7.435601 -0.373613 -1.178578 2.150535 0.688280 -0.160504 -23.846278 2.692649 -4.157540 -1.200024 -1.008295 0.887297 -4.278390 -8.637114 0.734777 -1.121956 12.714093 0.808093 -3.932872 -4.699430 -0.353319 0.704994 -0.035057 0.039447 0.024661 -8.412031 5.117939 4.125089 -63.741538 -7.023502 12.805400 -2.328316 -19.686159 -0.199724 5.022497 0.605106 0.095400 -0.202962 0.023409 -0.049886 -0.150282 -0.047228 -0.068312 -0.028495 0.100503 -0.026339 20.830326 0.755561 4.511322 66.452820 15.536691 -3.203823 0.733022 16.106287 -1.230226 -1.605661 8.637118 -0.122879 -0.019760 0.114922 -0.016119 0.083982 0.040682 -0.082881 -0.007333 0.066534 0.062820 
